<?xml version="1.0" encoding="UTF-8"?>
<!-- Created with Inkscape (http://www.inkscape.org/) -->
<svg id="44xtc44" width="100px" height="100px" version="1.1" xml:space="preserve" xmlns="http://www.w3.org/2000/svg">
<g id="gNoAirplane" fill-rule="evenodd">
 <circle id="path4594" cx="49.65" cy="50.485" r="45.545" fill="#f9f9f9" opacity=".7" style="paint-order:stroke fill markers"/>
 <path id="path2914" d="m50.119 17.848s-1.7417 0.99839-2.4387 1.7038c-1.3351 1.3513-2.5151 2.9416-3.2072 4.7106-0.74249 1.8979-0.9496 4.0094-0.90211 6.0468 0.34391 13.314 1.4014 26.945 2.0046 40.124l-7.3501 3.274 0.06681 8.4855 11.827-4.2094m-6.4783-38.13c-9.121 5.2166-20.574 11.257-27.535 16.397 0.01432 1.4049-6e-3 2.6811 0.09708 4.9579l28.412-7.682z" fill="#bad5ed" stroke="#000" stroke-linecap="round" stroke-linejoin="round" stroke-width="1.1339"/>
 <path id="path3623" d="m50.25 77.983 11.827 4.2094 0.06681-8.4855-7.3501-3.274c0.60326-13.179 1.6607-26.81 2.0046-40.124 0.04749-2.0374-0.15962-4.1489-0.90211-6.0468-0.69208-1.769-1.8721-3.3593-3.2072-4.7106-0.69698-0.70543-2.4387-1.7038-2.4387-1.7038m6.2262 21.93-0.74007 13.748 28.412 7.682c0.10308-2.2769 0.08274-3.553 0.09708-4.9579-6.9611-5.1393-18.648-11.255-27.769-16.472z" fill="#bad5ed" stroke="#000" stroke-linecap="round" stroke-linejoin="round" stroke-width="1.1339"/>
 <path id="path2756" d="m49.727 1.2774a48.642 48.642 0 0 0-48.642 48.642 48.642 48.642 0 0 0 48.642 48.642 48.642 48.642 0 0 0 48.642-48.642 48.642 48.642 0 0 0-48.642-48.642zm0 8.2851a40.357 40.357 0 0 1 40.357 40.357 40.357 40.357 0 0 1-9.515 25.086l-56.254-55.711a40.357 40.357 0 0 1 25.412-9.7327zm-30.731 15.104 55.93 56.02a40.357 40.357 0 0 1-25.2 9.5903 40.357 40.357 0 0 1-40.357-40.357 40.357 40.357 0 0 1 9.6264-25.254z" fill="#d53434" stroke-dashoffset="20.001" stroke-linecap="round" stroke-linejoin="round" stroke-width=".75594" style="paint-order:stroke fill markers"/>
</g>
</svg>
