<!-- Generated by IcoMoon.io -->
<svg version="1.1" xmlns="http://www.w3.org/2000/svg" width="32" height="32" viewBox="0 0 32 32">
<title>move-down</title>
<path fill="#568af2" d="M24 22v-12h-2v12h-5l6 6 6-6z"></path>
<path fill="#568af2" d="M10 8v6h-6v-6h6zM12 6h-10v10h10v-10z"></path>
<path fill="#568af2" d="M2 20h3v2h-3v-2z"></path>
<path fill="#568af2" d="M6 20h3v2h-3v-2z"></path>
<path fill="#568af2" d="M10 20h2v3h-2v-3z"></path>
<path fill="#568af2" d="M2 27h2v3h-2v-3z"></path>
<path fill="#568af2" d="M5 28h3v2h-3v-2z"></path>
<path fill="#568af2" d="M9 28h3v2h-3v-2z"></path>
<path fill="#568af2" d="M2 23h2v3h-2v-3z"></path>
<path fill="#568af2" d="M10 24h2v3h-2v-3z"></path>
</svg>
