<?xml version="1.0" encoding="UTF-8" standalone="no"?>
<svg
   xmlns:dc="http://purl.org/dc/elements/1.1/"
   xmlns:cc="http://creativecommons.org/ns#"
   xmlns:rdf="http://www.w3.org/1999/02/22-rdf-syntax-ns#"
   xmlns:svg="http://www.w3.org/2000/svg"
   xmlns="http://www.w3.org/2000/svg"
   xmlns:sodipodi="http://sodipodi.sourceforge.net/DTD/sodipodi-0.dtd"
   xmlns:inkscape="http://www.inkscape.org/namespaces/inkscape"
   width="138"
   height="32"
   viewBox="0 0 138 32"
   version="1.1"
   id="svg20"
   sodipodi:docname="gg-logo.svg"
   style="fill:none"
   inkscape:version="0.92.5 (2060ec1f9f, 2020-04-08)">
  <metadata
     id="metadata26">
    <rdf:RDF>
      <cc:Work
         rdf:about="">
        <dc:format>image/svg+xml</dc:format>
        <dc:type
           rdf:resource="http://purl.org/dc/dcmitype/StillImage" />
        <dc:title></dc:title>
      </cc:Work>
    </rdf:RDF>
  </metadata>
  <defs
     id="defs24" />
  <sodipodi:namedview
     pagecolor="#ffffff"
     bordercolor="#666666"
     borderopacity="1"
     objecttolerance="10"
     gridtolerance="10"
     guidetolerance="10"
     inkscape:pageopacity="0"
     inkscape:pageshadow="2"
     inkscape:window-width="1920"
     inkscape:window-height="1011"
     id="namedview22"
     showgrid="false"
     inkscape:zoom="1.8522443"
     inkscape:cx="192.80752"
     inkscape:cy="-10.819493"
     inkscape:window-x="0"
     inkscape:window-y="0"
     inkscape:window-maximized="1"
     inkscape:current-layer="svg20" />
  <path
     d="m 41.008992,23.52759 h 2.999305 V 12.59593 H 41.008992 Z M 44.225638,9.59684 c 0,0.49283 -0.152139,0.88759 -0.456105,1.18457 -0.304588,0.29698 -0.724988,0.4453 -1.260578,0.4453 -0.521618,0 -0.938603,-0.14832 -1.249711,-0.4453 -0.311729,-0.29698 -0.467593,-0.69174 -0.467593,-1.18457 0,-0.47831 0.155864,-0.87275 0.467593,-1.18457 0.311108,-0.3112 0.728093,-0.4671 1.249711,-0.4671 0.521618,0 0.937671,0.15195 1.2494,0.4562 0.311419,0.30425 0.467283,0.70325 0.467283,1.19547 z M 34.40462,23.74493 c -2.028412,0 -3.560666,-0.61942 -4.596451,-1.85796 -1.036095,-1.2389 -1.553988,-3.06069 -1.553988,-5.46584 0,-2.31825 0.535901,-4.09707 1.608323,-5.33554 1.072112,-1.23875 2.614923,-1.85811 4.629053,-1.85811 0.767834,0 1.492201,0.0869 2.173099,0.26066 0.680898,0.17374 1.32609,0.44197 1.934645,0.80431 l -1.21742,2.39032 c -0.448964,-0.24581 -0.916247,-0.43773 -1.401539,-0.57577 -0.485601,-0.13745 -0.960026,-0.20647 -1.423583,-0.20647 -1.086705,0 -1.883725,0.366 -2.390751,1.09738 -0.507025,0.73201 -0.760383,1.87295 -0.760383,3.42322 0,1.59385 0.253358,2.77085 0.760383,3.5316 0.507026,0.76045 1.304046,1.14064 2.390751,1.14064 0.260809,0 0.510751,-0.0174 0.749826,-0.054 0.239075,-0.036 0.474114,-0.0904 0.706048,-0.16331 v -4.30292 h 2.804009 v 6.04165 c -0.666616,0.37693 -1.365833,0.65947 -2.09734,0.84731 -0.731818,0.18847 -1.503379,0.28286 -2.314682,0.28286 z M 53.518517,12.59586 H 50.367073 V 9.87923 H 48.17224 l -0.543663,2.71663 -2.086163,0.30456 v 2.15115 h 1.868822 v 4.93351 c 0,1.21727 0.31887,2.14842 0.9563,2.79299 0.63743,0.64488 1.550262,0.96686 2.738497,0.96686 0.521618,0 1.024918,-0.0618 1.510519,-0.18474 0.485292,-0.12295 0.952575,-0.30024 1.40185,-0.53249 l -0.782428,-2.30335 c -0.289995,0.13016 -0.572538,0.22793 -0.84763,0.29295 -0.275402,0.0655 -0.536211,0.0981 -0.782427,0.0981 -0.449275,0 -0.768145,-0.0981 -0.9563,-0.29359 -0.188156,-0.19555 -0.282544,-0.52491 -0.282544,-0.98869 v -4.78156 h 3.151444 z m 7.706291,11.14907 c -2.028413,0 -3.560667,-0.61942 -4.596452,-1.85796 -1.035785,-1.23887 -1.553988,-3.06069 -1.553988,-5.46584 0,-2.31825 0.535901,-4.09707 1.608324,-5.33551 1.072112,-1.23875 2.615233,-1.85814 4.629052,-1.85814 0.768145,0 1.492197,0.0869 2.173407,0.26066 0.68059,0.17374 1.32578,0.44197 1.93434,0.80434 l -1.21742,2.39032 c -0.44866,-0.24581 -0.91625,-0.43776 -1.40154,-0.5758 -0.4856,-0.13742 -0.959717,-0.20644 -1.423274,-0.20644 -1.086705,0 -1.884036,0.36597 -2.391061,1.09735 -0.507026,0.73201 -0.760383,1.87299 -0.760383,3.42322 0,1.59385 0.253357,2.77085 0.760383,3.5316 0.507025,0.76045 1.304356,1.14064 2.391061,1.14064 0.260498,0 0.510751,-0.0174 0.749516,-0.054 0.239078,-0.036 0.474428,-0.0904 0.706358,-0.16331 v -4.30292 h 2.8037 v 6.04165 c -0.66662,0.37693 -1.36583,0.65947 -2.09734,0.84731 -0.73151,0.18847 -1.503381,0.28286 -2.314683,0.28286 z m 6.589463,-11.14919 v 7.4982 c 0,1.15902 0.28969,2.05726 0.86937,2.695 0.57906,0.63774 1.39067,0.9563 2.43391,0.9563 0.59396,0 1.1519,-0.12358 1.67352,-0.36979 0.52162,-0.24622 1.06497,-0.63743 1.62975,-1.17333 v 1.32578 h 2.82543 V 12.59574 h -2.97726 v 7.58508 c -0.40612,0.30424 -0.78615,0.52888 -1.14104,0.67388 -0.35551,0.14459 -0.69207,0.21693 -1.01094,0.21693 -0.44897,0 -0.78212,-0.12279 -0.99946,-0.3692 -0.21734,-0.24643 -0.32601,-0.62271 -0.32601,-1.13039 v -6.9763 z m 14.24143,7.71548 c 0,0.37687 0.1155,0.66658 0.34774,0.86908 0.23163,0.20306 0.56478,0.30459 0.99946,0.30459 0.39121,0 0.75728,-0.0686 1.09788,-0.20678 0.3403,-0.13755 0.6986,-0.35085 1.07553,-0.64088 v -1.47789 h -2.15136 c -0.43469,0 -0.77188,0.10141 -1.01064,0.30425 -0.23907,0.20312 -0.35861,0.48557 -0.35861,0.84763 z m 6.43267,-3.89034 v 7.10671 h -2.80339 v -1.19507 c -0.44927,0.49243 -0.92711,0.85105 -1.43445,1.07553 -0.50733,0.22479 -1.07925,0.33688 -1.71668,0.33688 -0.98549,0 -1.78592,-0.30024 -2.40162,-0.90197 -0.61601,-0.6011 -0.9237,-1.3798 -0.9237,-2.3362 0,-0.99958 0.34775,-1.79272 1.04355,-2.37972 0.69518,-0.58667 1.65862,-0.88033 2.89032,-0.88033 h 2.43391 v -0.54307 c 0,-0.60877 -0.14096,-1.05047 -0.42381,-1.32594 -0.28255,-0.27487 -0.74269,-0.41291 -1.38012,-0.41291 -0.46387,0 -0.96375,0.069 -1.49934,0.20644 -0.53621,0.13804 -1.14477,0.35178 -1.82567,0.64119 l -0.89109,-2.26016 c 0.78242,-0.37659 1.57199,-0.66628 2.3687,-0.86943 0.79702,-0.2025 1.55741,-0.30421 2.28208,-0.30421 1.44874,0 2.52457,0.33327 3.22752,0.99989 0.70232,0.66658 1.05379,1.68073 1.05379,3.04237 z m 5.38323,7.10671 v -7.38916 c 0.52161,-0.31847 1.06807,-0.55037 1.64061,-0.69537 0.57223,-0.14472 1.22052,-0.21737 1.9452,-0.21737 v -2.84711 c -0.72468,0 -1.38011,0.13805 -1.96694,0.41292 -0.58682,0.27547 -1.17736,0.71018 -1.77101,1.30414 v -1.49971 h -2.84717 v 10.93166 z m 7.723359,-5.43328 c 0,1.10161 0.15556,1.89081 0.46697,2.36911 0.31173,0.478 0.84422,0.71688 1.59746,0.71688 0.30428,0 0.60514,-0.0506 0.90228,-0.15213 0.29651,-0.10097 0.58309,-0.2605 0.85818,-0.47787 v -5.41152 c -0.27509,-0.11593 -0.54335,-0.20281 -0.80416,-0.26093 -0.2605,-0.0575 -0.52131,-0.0869 -0.78212,-0.0869 -0.82589,0 -1.40588,0.25366 -1.73872,0.76072 -0.33347,0.50709 -0.49989,1.35472 -0.49989,2.54261 z m 6.82389,-9.30185 v 14.73513 h -2.82512 v -1.17364 c -0.40581,0.47815 -0.84422,0.82962 -1.31492,1.05441 -0.4707,0.22417 -0.98859,0.33657 -1.55367,0.33657 -1.33324,0 -2.35474,-0.48157 -3.064199,-1.44532 -0.7104,-0.96313 -1.06497,-2.36504 -1.06497,-4.2053 0,-1.82545 0.41294,-3.23462 1.23853,-4.22697 0.825899,-0.99201 1.977799,-1.48879 3.455719,-1.48879 0.37662,0 0.74238,0.0363 1.09726,0.10898 0.35489,0.0727 0.69922,0.18828 1.03237,0.34753 v -4.0426 z m 5.46147,14.73513 h -2.999 V 12.59593 h 2.999 z m -0.23877,-12.74618 c 0.30428,-0.29698 0.45642,-0.69174 0.45642,-1.18457 0,-0.49222 -0.15587,-0.89122 -0.46729,-1.19547 -0.31172,-0.30425 -0.72809,-0.4562 -1.24971,-0.4562 -0.52161,0 -0.93829,0.1559 -1.2494,0.4671 -0.31204,0.31182 -0.46759,0.70626 -0.46759,1.18457 0,0.49283 0.15555,0.88759 0.46759,1.18457 0.31111,0.29698 0.72779,0.4453 1.2494,0.4453 0.5359,0 0.95599,-0.14832 1.26058,-0.4453 z m 4.99605,9.52981 c 0,0.37687 0.11581,0.66658 0.34806,0.86908 0.23131,0.20306 0.56477,0.30459 0.99945,0.30459 0.39122,0 0.75728,-0.0686 1.09758,-0.20678 0.34029,-0.13755 0.6989,-0.35085 1.07583,-0.64088 v -1.47789 h -2.15167 c -0.43468,0 -0.77156,0.10141 -1.01033,0.30425 -0.23938,0.20312 -0.35892,0.48557 -0.35892,0.84763 z m 6.43298,-3.89034 v 7.10671 h -2.80339 v -1.19507 c -0.44927,0.49243 -0.92742,0.85105 -1.43445,1.07553 -0.50733,0.22479 -1.07956,0.33688 -1.71668,0.33688 -0.9858,0 -1.78623,-0.30024 -2.40193,-0.90197 -0.61569,-0.6011 -0.9237,-1.3798 -0.9237,-2.3362 0,-0.99958 0.34806,-1.79272 1.04355,-2.37972 0.69549,-0.58667 1.65862,-0.88033 2.89064,-0.88033 h 2.4339 v -0.54307 c 0,-0.60877 -0.14127,-1.05047 -0.42381,-1.32594 -0.28254,-0.27487 -0.74269,-0.41291 -1.38012,-0.41291 -0.46386,0 -0.96375,0.069 -1.49965,0.20644 -0.5359,0.13804 -1.14445,0.35178 -1.82535,0.64119 l -0.8911,-2.26016 c 0.78243,-0.37659 1.572,-0.66628 2.36871,-0.86943 0.79671,-0.2025 1.55709,-0.30421 2.28208,-0.30421 1.44873,0 2.52426,0.33327 3.22751,0.99989 0.70232,0.66658 1.05379,1.68073 1.05379,3.04237 z m 5.38292,7.10702 v -7.58489 c 0.40549,-0.28972 0.80416,-0.51069 1.19537,-0.66295 0.39122,-0.15199 0.75324,-0.22827 1.08671,-0.22827 0.44896,0 0.7787,0.1232 0.9889,0.36932 0.20989,0.24671 0.31514,0.6233 0.31514,1.13039 v 6.9764 h 2.97726 v -7.49802 c 0,-1.17364 -0.28626,-2.07548 -0.85849,-2.70574 -0.57254,-0.63029 -1.37981,-0.9454 -2.42335,-0.9454 -0.62284,0 -1.20594,0.12714 -1.74929,0.38022 -0.54304,0.25367 -1.10502,0.64873 -1.68408,1.18454 V 12.59577 H 127.4545 V 23.5279 Z"
     id="path4"
     inkscape:connector-curvature="0"
     style="clip-rule:evenodd;fill:#020d26;fill-rule:evenodd;stroke-width:0.31048712" />
  <path
     d="m 19.164019,0.65602 c -1.005016,-0.87986 -2.512741,-0.86943 -3.514901,0.004 -0.805652,0.70189 -1.837742,1.08835 -2.906718,1.08835 -1.068728,0 -2.100849,-0.38653 -2.906159,-1.08835 C 8.833305,-0.21366 7.3253,-0.22273 6.320471,0.65702 l -0.0051,0.004 -0.005,0.004 C 3.265082,3.40373 2.91833,6.61755 3.010421,8.50476 L 1.771919,9.42442 C 0.661307,10.23501 0,11.53722 0,12.91308 v 1.65801 C 0,19.89566 2.080171,25.16121 5.542878,28.29775 8.173635,30.68012 10.48751,31.99627 12.741894,32 h 0.0036 c 2.252305,-0.004 4.566241,-1.31988 7.196594,-3.70225 3.462863,-3.13654 5.542816,-8.40212 5.542816,-13.72666 v -1.65801 c 0,-1.37455 -0.660095,-2.6773 -1.766671,-3.48481 L 22.476595,8.50625 C 22.563845,6.55434 22.14872,3.32394 19.171832,0.6625 l -0.0039,-0.003 z"
     id="path6"
     inkscape:connector-curvature="0"
     style="clip-rule:evenodd;fill:#ffffff;fill-rule:evenodd;stroke-width:0.31048712" />
  <path
     d="M 12.162069,7.31237 C 12.027162,7.17367 11.8477,6.98915 11.584345,6.74793 9.803826,5.11666 7.45052,4.66559 5.565211,5.94458 5.956238,4.57635 6.733388,3.33257 7.826551,2.37559 c 0.142172,-0.12444 0.360475,-0.12143 0.508081,0.007 1.226051,1.06423 2.752282,1.65064 4.40783,1.65064 1.655548,0 3.185846,-0.58641 4.407799,-1.65064 0.147358,-0.12851 0.365941,-0.13152 0.508113,-0.007 1.093132,0.95698 1.870188,2.20076 2.261401,3.56899 -1.88537,-1.27899 -4.238677,-0.82792 -6.019227,0.80335 -0.263324,0.24122 -0.442817,0.42574 -0.577692,0.56444 -0.266553,0.27403 -0.358985,0.36907 -0.580394,0.36907 -0.221408,0 -0.313871,-0.095 -0.580393,-0.36907 z m -5.395708,7.07547 c 1.382413,1.29784 3.140298,2.09327 5.041442,2.29112 0.796523,1.35645 1.235024,3.06385 1.235024,4.83077 0,2.72453 -1.129986,5.32858 -3.106175,7.19802 C 9.083372,28.19949 8.148495,27.48475 7.121931,26.55484 5.417512,25.01109 4.088317,22.8203 3.270494,20.33196 Z"
     id="path8"
     inkscape:connector-curvature="0"
     style="clip-rule:evenodd;fill:#475b87;fill-rule:evenodd;stroke-width:0.31048712" />
  <path
     d="M 3.165456,11.3197 4.34894,10.44105 c 0.307258,1.06202 0.81152,2.05586 1.490711,2.93125 L 2.786972,18.56246 C 2.503187,17.27121 2.352259,15.92699 2.352259,14.57162 v -1.65803 c 0,-0.63663 0.294435,-1.21621 0.813197,-1.59389 z m 17.988506,-0.86545 1.170536,0.86939 c 0.513546,0.37386 0.808198,0.95317 0.808198,1.58979 v 1.65803 c 0,3.41642 -0.955058,6.76191 -2.595362,9.36069 0.487776,-1.38415 0.765041,-2.8394 0.765041,-4.22321 0,-2.18304 -0.622838,-4.285 -1.802689,-6.10322 0.781186,-0.93105 1.348756,-2.07877 1.654276,-3.15147 z"
     id="path10"
     inkscape:connector-curvature="0"
     style="clip-rule:evenodd;fill:#e9edf5;fill-rule:evenodd;stroke-width:0.31048712" />
  <path
     d="m 20.537334,23.93215 c 1.640304,-2.59909 2.595673,-5.94415 2.595673,-9.36059 v -1.65801 c 0,-0.63662 -0.294963,-1.21596 -0.808509,-1.58978 l -1.170536,-0.8694 c -0.30552,1.07267 -0.87309,2.22042 -1.654276,3.15148 1.179851,1.81818 1.802689,3.92018 1.802689,6.10293 0,1.38366 -0.277576,2.83891 -0.765041,4.22337 z m -7.793785,5.71607 c 0.963255,-0.002 2.076879,-0.43096 3.366487,-1.29815 2.219611,-1.8238 3.878668,-5.50152 3.878668,-8.64129 0,-1.82638 -0.494296,-3.58808 -1.432309,-5.13313 -1.446249,1.2716 -3.275639,2.01547 -5.246083,2.13473 0.678104,1.42116 1.046217,3.09009 1.046217,4.79935 0,2.9251 -1.14964,5.72663 -3.174948,7.81434 0.559684,0.21455 1.079781,0.32353 1.561968,0.32415 z M 7.121683,26.55484 c 1.026843,0.92959 1.961471,1.64465 2.815031,2.15291 1.976189,-1.86944 3.105896,-4.47349 3.105896,-7.19802 0,-1.76714 -0.438221,-3.47454 -1.234776,-4.83074 C 9.90669,16.48118 8.148526,15.68571 6.766392,14.3879 l -3.495836,5.94384 c 0.817544,2.48856 2.147018,4.67935 3.851127,6.2231 z M 2.352042,12.91355 v 1.65801 c 0,1.35564 0.150897,2.69987 0.434713,3.99084 L 5.839433,13.37227 C 5.160522,12.49685 4.656229,11.50304 4.348971,10.44099 l -1.183484,0.87868 c -0.51901,0.37764 -0.813445,0.95726 -0.813445,1.59388 z M 13.89409,8.642 c -0.413445,0.50277 -0.737034,0.89631 -1.151907,0.89631 -0.414811,0 -0.738214,-0.39339 -1.151473,-0.89603 C 11.420284,8.43496 11.23455,8.20908 11.020873,7.98454 9.704222,6.58139 8.021102,6.23019 6.797255,6.71701 5.751845,7.13287 5.250004,8.09287 5.388916,9.31672 c 0.258698,1.5243 0.962728,2.91025 2.049588,3.99196 1.388964,1.38266 3.253253,2.14401 5.303679,2.14401 2.050674,0 3.914994,-0.76135 5.303958,-2.14401 1.086581,-1.08171 1.790734,-2.46766 2.049681,-3.99196 C 20.234299,8.09287 19.732862,7.13287 18.687111,6.71701 17.463791,6.23019 15.780672,6.58139 14.463772,7.98454 14.250157,8.20899 14.064485,8.43478 13.89409,8.642 Z m 3.255892,-6.25939 c -1.221674,1.06422 -2.752251,1.65064 -4.407799,1.65064 -1.655549,0 -3.1815,-0.58642 -4.407551,-1.65064 C 8.187026,2.25407 7.968723,2.25109 7.826551,2.37561 6.733388,3.33262 5.956238,4.5764 5.56518,5.94459 7.45052,4.6656 9.803546,5.11696 11.584345,6.74795 c 0.262983,0.241 0.44232,0.42537 0.577165,0.564 0.266863,0.27438 0.35942,0.36954 0.580952,0.36954 0.221409,0 0.313841,-0.0951 0.580394,-0.36911 C 13.457731,7.17372 13.637224,6.9892 13.900548,6.74795 15.681098,5.11696 18.034125,4.6656 19.919775,5.94459 19.528562,4.5764 18.751257,3.33262 17.658374,2.37561 17.516202,2.2512 17.297619,2.25418 17.149982,2.38261 Z m 4.279692,6.60365 1.690292,1.25524 c 0.847009,0.61644 1.355587,1.61683 1.355587,2.67205 v 1.65801 c 0,5.0941 -1.996432,10.06726 -5.21103,12.9787 -2.588531,2.34449 -4.660753,3.43802 -6.520974,3.44113 C 10.881154,30.98839 8.808901,29.89475 6.22009,27.55026 3.005866,24.63882 1.008937,19.66566 1.008937,14.57156 v -1.65801 c 0,-1.05522 0.508919,-2.05561 1.360834,-2.67587 L 4.058355,8.98381 C 3.894356,7.3984 3.938569,4.15549 6.984975,1.41578 c 0.62054,-0.54329 1.561409,-0.54136 2.18822,0.005 0.989181,0.862 2.256714,1.33655 3.568988,1.33655 1.312553,0 2.580054,-0.47455 3.569515,-1.33655 0.626532,-0.54578 1.567152,-0.54823 2.187413,-0.005 2.961301,2.64747 3.102884,5.90811 2.930563,7.57101 z M 7.461542,9.73603 c 0,-0.72915 0.461725,-1.32237 1.029296,-1.32237 0.567601,0 1.029047,0.59322 1.029047,1.32237 0,0.7294 -0.461446,1.32236 -1.029047,1.32236 -0.567571,0 -1.029296,-0.59296 -1.029296,-1.32236 z m 5.277815,0.86992 c 0.488179,0 0.838812,0.35231 0.872935,0.87651 0.0052,0.078 0.0076,0.158 0.0076,0.23767 0,0.835 -0.168098,1.51583 -0.562137,2.27662 l -0.015,0.0292 c -0.05704,0.11295 -0.143258,0.28322 -0.303439,0.28322 -0.159435,0 -0.245626,-0.16949 -0.302911,-0.2822 l -5.28e-4,-0.001 -0.01475,-0.0292 c -0.394319,-0.76079 -0.562137,-1.44162 -0.562137,-2.27662 0,-0.0797 0.0025,-0.15965 0.0076,-0.23767 0.03384,-0.5242 0.384787,-0.87651 0.872686,-0.87651 z M 18.319401,9.52968 C 18.18378,9.09826 17.785394,8.7656 17.327767,8.70229 c -0.639076,-0.0884 -1.288522,0.295 -1.737952,1.02495 -0.135093,0.21859 -0.07368,0.40385 0.02891,0.50402 0.07014,0.0687 0.163751,0.1064 0.269875,0.10885 l 0.0026,2.2e-4 c 9.63e-4,3e-5 0.0019,6e-5 0.0029,6e-5 4.65e-4,0 9.31e-4,0 0.0014,0 0.125685,0 0.242118,-0.0827 0.32775,-0.1435 l 8.07e-4,-5.6e-4 0.03875,-0.027 c 0.46334,-0.31381 0.85356,-0.33647 1.265887,-0.0742 0.228115,0.14518 0.463868,0.15937 0.630599,0.0377 0.172476,-0.12634 0.235505,-0.36321 0.160181,-0.60306 z"
     id="path12"
     inkscape:connector-curvature="0"
     style="clip-rule:evenodd;fill:#020d26;fill-rule:evenodd;stroke-width:0.31048712" />
</svg>
