<?xml version="1.0" encoding="UTF-8" standalone="no"?>
<!-- Created with Inkscape (http://www.inkscape.org/) -->

<svg
   xmlns:dc="http://purl.org/dc/elements/1.1/"
   xmlns:cc="http://creativecommons.org/ns#"
   xmlns:rdf="http://www.w3.org/1999/02/22-rdf-syntax-ns#"
   xmlns:svg="http://www.w3.org/2000/svg"
   xmlns="http://www.w3.org/2000/svg"
   xmlns:xlink="http://www.w3.org/1999/xlink"
   xmlns:sodipodi="http://sodipodi.sourceforge.net/DTD/sodipodi-0.dtd"
   xmlns:inkscape="http://www.inkscape.org/namespaces/inkscape"
   version="1.0"
   id="svg2"
   sodipodi:version="0.32"
   inkscape:version="0.92.5 (2060ec1f9f, 2020-04-08)"
   sodipodi:docname="python-logo.svg"
   width="111"
   height="32">
  <metadata
     id="metadata371">
    <rdf:RDF>
      <cc:Work
         rdf:about="">
        <dc:format>image/svg+xml</dc:format>
        <dc:type
           rdf:resource="http://purl.org/dc/dcmitype/StillImage" />
        <dc:title></dc:title>
      </cc:Work>
    </rdf:RDF>
  </metadata>
  <sodipodi:namedview
     inkscape:window-height="1011"
     inkscape:window-width="1920"
     inkscape:pageshadow="2"
     inkscape:pageopacity="0.0"
     guidetolerance="10.0"
     gridtolerance="10.0"
     objecttolerance="10.0"
     borderopacity="1.0"
     bordercolor="#666666"
     pagecolor="#ffffff"
     id="base"
     inkscape:zoom="2.1461642"
     inkscape:cx="157.54215"
     inkscape:cy="67.50975"
     inkscape:window-x="0"
     inkscape:window-y="0"
     inkscape:current-layer="svg2"
     width="210mm"
     height="40mm"
     units="px"
     showgrid="false"
     inkscape:window-maximized="1" />
  <defs
     id="defs4">
    <linearGradient
       id="linearGradient2795">
      <stop
         style="stop-color:#b8b8b8;stop-opacity:0.49803922;"
         offset="0"
         id="stop2797" />
      <stop
         style="stop-color:#7f7f7f;stop-opacity:0;"
         offset="1"
         id="stop2799" />
    </linearGradient>
    <linearGradient
       id="linearGradient2787">
      <stop
         style="stop-color:#7f7f7f;stop-opacity:0.5;"
         offset="0"
         id="stop2789" />
      <stop
         style="stop-color:#7f7f7f;stop-opacity:0;"
         offset="1"
         id="stop2791" />
    </linearGradient>
    <linearGradient
       id="linearGradient3676">
      <stop
         style="stop-color:#b2b2b2;stop-opacity:0.5;"
         offset="0"
         id="stop3678" />
      <stop
         style="stop-color:#b3b3b3;stop-opacity:0;"
         offset="1"
         id="stop3680" />
    </linearGradient>
    <linearGradient
       id="linearGradient3236">
      <stop
         style="stop-color:#f4f4f4;stop-opacity:1"
         offset="0"
         id="stop3244" />
      <stop
         style="stop-color:white;stop-opacity:1"
         offset="1"
         id="stop3240" />
    </linearGradient>
    <linearGradient
       id="linearGradient4671">
      <stop
         style="stop-color:#ffd43b;stop-opacity:1;"
         offset="0"
         id="stop4673" />
      <stop
         style="stop-color:#ffe873;stop-opacity:1"
         offset="1"
         id="stop4675" />
    </linearGradient>
    <linearGradient
       id="linearGradient4689">
      <stop
         style="stop-color:#5a9fd4;stop-opacity:1;"
         offset="0"
         id="stop4691" />
      <stop
         style="stop-color:#306998;stop-opacity:1;"
         offset="1"
         id="stop4693" />
    </linearGradient>
    <linearGradient
       x1="224.23996"
       y1="144.75717"
       x2="-65.308502"
       y2="144.75717"
       id="linearGradient2987"
       xlink:href="#linearGradient4671"
       gradientUnits="userSpaceOnUse"
       gradientTransform="translate(100.2702,99.61116)" />
    <linearGradient
       x1="172.94208"
       y1="77.475983"
       x2="26.670298"
       y2="76.313133"
       id="linearGradient2990"
       xlink:href="#linearGradient4689"
       gradientUnits="userSpaceOnUse"
       gradientTransform="translate(100.2702,99.61116)" />
    <linearGradient
       inkscape:collect="always"
       xlink:href="#linearGradient4689"
       id="linearGradient2587"
       gradientUnits="userSpaceOnUse"
       gradientTransform="translate(100.2702,99.61116)"
       x1="172.94208"
       y1="77.475983"
       x2="26.670298"
       y2="76.313133" />
    <linearGradient
       inkscape:collect="always"
       xlink:href="#linearGradient4671"
       id="linearGradient2589"
       gradientUnits="userSpaceOnUse"
       gradientTransform="translate(100.2702,99.61116)"
       x1="224.23996"
       y1="144.75717"
       x2="-65.308502"
       y2="144.75717" />
    <linearGradient
       inkscape:collect="always"
       xlink:href="#linearGradient4689"
       id="linearGradient2248"
       gradientUnits="userSpaceOnUse"
       gradientTransform="translate(100.2702,99.61116)"
       x1="172.94208"
       y1="77.475983"
       x2="26.670298"
       y2="76.313133" />
    <linearGradient
       inkscape:collect="always"
       xlink:href="#linearGradient4671"
       id="linearGradient2250"
       gradientUnits="userSpaceOnUse"
       gradientTransform="translate(100.2702,99.61116)"
       x1="224.23996"
       y1="144.75717"
       x2="-65.308502"
       y2="144.75717" />
    <linearGradient
       inkscape:collect="always"
       xlink:href="#linearGradient4671"
       id="linearGradient2255"
       gradientUnits="userSpaceOnUse"
       gradientTransform="matrix(0.562541,0,0,0.567972,-11.5974,-7.60954)"
       x1="224.23996"
       y1="144.75717"
       x2="-65.308502"
       y2="144.75717" />
    <linearGradient
       inkscape:collect="always"
       xlink:href="#linearGradient4689"
       id="linearGradient2258"
       gradientUnits="userSpaceOnUse"
       gradientTransform="matrix(0.562541,0,0,0.567972,-11.5974,-7.60954)"
       x1="172.94208"
       y1="76.176224"
       x2="26.670298"
       y2="76.313133" />
    <radialGradient
       inkscape:collect="always"
       xlink:href="#linearGradient2795"
       id="radialGradient2801"
       cx="61.518883"
       cy="132.28575"
       fx="61.518883"
       fy="132.28575"
       r="29.036913"
       gradientTransform="matrix(1,0,0,0.177966,0,108.7434)"
       gradientUnits="userSpaceOnUse" />
    <linearGradient
       inkscape:collect="always"
       xlink:href="#linearGradient4671"
       id="linearGradient1475"
       gradientUnits="userSpaceOnUse"
       gradientTransform="matrix(0.13063031,0,0,0.13189146,-3.4811587,-1.9893906)"
       x1="150.96111"
       y1="192.35176"
       x2="112.03144"
       y2="137.27299" />
    <linearGradient
       inkscape:collect="always"
       xlink:href="#linearGradient4689"
       id="linearGradient1478"
       gradientUnits="userSpaceOnUse"
       gradientTransform="matrix(0.13063031,0,0,0.13189146,-3.4811587,-1.9893906)"
       x1="26.648937"
       y1="20.603781"
       x2="135.66525"
       y2="114.39767" />
    <radialGradient
       inkscape:collect="always"
       xlink:href="#linearGradient2795"
       id="radialGradient1480"
       gradientUnits="userSpaceOnUse"
       gradientTransform="matrix(0,-0.05571922,0.24490946,8.8045279e-8,-19.43656,33.809849)"
       cx="61.518883"
       cy="132.28575"
       fx="61.518883"
       fy="132.28575"
       r="29.036913" />
  </defs>
  <path
     id="path46"
     style="fill:#646464;fill-opacity:1;stroke-width:0.23221475"
     d="m 41.571561,13.623499 c 0,-3.38155 -0.964216,-5.1175996 -2.892647,-5.2126496 -0.767301,-0.0362 -1.51649,0.086 -2.245313,0.36893 -0.581698,0.20824 -0.973267,0.4142 -1.179239,0.62244 v 8.0713496 c 1.233562,0.77409 2.329058,1.13397 3.284219,1.07738 2.021233,-0.13353 3.03298,-1.77451 3.03298,-4.92745 z m 2.378853,0.14032 c 0,1.71794 -0.402889,3.1439 -1.213193,4.27786 -0.903104,1.28336 -2.154774,1.94428 -3.755009,1.9805 -1.206402,0.0385 -2.449018,-0.33952 -3.72785,-1.13171 v 7.33574 l -2.068764,-0.73788 V 9.2052994 c 0.339512,-0.41646 0.776352,-0.77408 1.305992,-1.07738 1.2313,-0.71751 2.727418,-1.08644 4.488358,-1.10455 l 0.02942,0.0294 c 1.60929,-0.0204 2.849644,0.64055 3.721059,1.98049 0.812567,1.2290396 1.219983,2.8043796 1.219983,4.7305396 z"
     inkscape:connector-curvature="0" />
  <path
     id="path48"
     style="fill:#646464;fill-opacity:1;stroke-width:0.23221475"
     d="m 56.593864,18.578119 c 0,2.30416 -0.230867,3.89987 -0.692603,4.78713 -0.464002,0.88725 -1.346734,1.59571 -2.650464,2.12308 -1.057016,0.41647 -2.200042,0.64281 -3.426814,0.68129 l -0.341776,-1.30373 c 1.247141,-0.16975 2.125351,-0.33951 2.634618,-0.50927 1.002694,-0.33951 1.690774,-0.8601 2.068764,-1.55723 0.303298,-0.56811 0.452684,-1.65229 0.452684,-3.25706 v -0.53869 c -1.414636,0.64281 -2.897176,0.96196 -4.447616,0.96196 -1.018538,0 -1.917116,-0.31915 -2.691203,-0.96196 -0.869155,-0.6994 -1.303731,-1.58666 -1.303731,-2.66178 V 7.7318194 l 2.068764,-0.70845 v 8.6666196 c 0,0.92575 0.298772,1.63872 0.896314,2.13894 0.597542,0.50021 1.371632,0.74013 2.320004,0.72202 0.948372,-0.0203 1.964645,-0.38704 3.044295,-1.10454 V 7.3357294 h 2.068764 z"
     inkscape:connector-curvature="0" />
  <path
     id="path50"
     style="fill:#646464;fill-opacity:1;stroke-width:0.23221475"
     d="m 64.66974,19.909009 c -0.246712,0.0203 -0.473053,0.0294 -0.681287,0.0294 -1.170189,0 -2.082346,-0.2784 -2.734211,-0.83747 -0.649602,-0.55905 -0.975531,-1.33089 -0.975531,-2.31547 V 8.6371594 h -1.4169 v -1.30145 h 1.4169 v -3.45625 l 2.0665,-0.73561 v 4.19186 h 2.324529 v 1.30145 h -2.324529 v 8.0917196 c 0,0.77636 0.208233,1.32637 0.624704,1.64777 0.357619,0.26483 0.925738,0.41647 1.699825,0.45495 z"
     inkscape:connector-curvature="0" />
  <path
     id="path52"
     style="fill:#646464;fill-opacity:1;stroke-width:0.23221475"
     d="M 77.195493,19.739249 H 75.12673 v -7.98534 c 0,-0.81257 -0.190129,-1.51196 -0.568116,-2.0959296 -0.43684,-0.66091 -1.043438,-0.99137 -1.822052,-0.99137 -0.948374,0 -2.134406,0.50022 -3.558092,1.5006496 v 9.57199 H 67.109704 V 0.65184939 L 69.17847,-2.0610352e-5 V 8.6937694 c 1.321836,-0.96195 2.765894,-1.44406 4.334442,-1.44406 1.095496,0 1.982756,0.36894 2.661779,1.10455 0.681291,0.73561 1.020802,1.6522896 1.020802,2.7477896 z"
     inkscape:connector-curvature="0" />
  <path
     id="path54"
     style="fill:#646464;fill-opacity:1;stroke-width:0.23221475"
     d="m 88.191175,13.297569 c 0,-1.29921 -0.246711,-2.37207 -0.737876,-3.22085 -0.583956,-1.0343796 -1.491583,-1.5798696 -2.718356,-1.6364496 -2.267947,0.13128 -3.399655,1.7564096 -3.399655,4.8708696 0,1.42822 0.235394,2.62104 0.710709,3.57846 0.606599,1.21999 1.516492,1.82206 2.729684,1.80169 2.276996,-0.0181 3.415494,-1.81526 3.415494,-5.39372 z m 2.26569,0.0136 c 0,1.84922 -0.473058,3.38834 -1.416907,4.61738 -1.038908,1.37615 -2.473912,2.06649 -4.305015,2.06649 -1.815264,0 -3.2299,-0.69034 -4.250702,-2.06649 -0.925738,-1.22904 -1.387475,-2.76816 -1.387475,-4.61738 0,-1.73831 0.500216,-3.20047 1.500645,-4.3910296 1.057018,-1.26299 2.446756,-1.89674 4.164687,-1.89674 1.717939,0 3.11673,0.63375 4.194118,1.89674 1.000427,1.1905596 1.500649,2.6527196 1.500649,4.3910296 z"
     inkscape:connector-curvature="0" />
  <path
     id="path56"
     style="fill:#646464;fill-opacity:1;stroke-width:0.23221475"
     d="m 102.31717,19.739249 h -2.06876 v -8.43802 c 0,-0.92573 -0.278405,-1.6477696 -0.835205,-2.1683596 -0.5568,-0.51832 -1.2992,-0.76956 -2.224943,-0.74919 -0.98232,0.0181 -1.917111,0.33951 -2.804374,0.96196 V 19.739249 H 92.315132 V 9.0898694 c 1.190552,-0.86689 2.286045,-1.43275 3.286472,-1.69757 0.943849,-0.24671 1.776792,-0.36893 2.494294,-0.36893 0.491164,0 0.952898,0.0476 1.387476,0.1426 0.812566,0.18785 1.473486,0.53642 1.982746,1.04796 0.56812,0.56585 0.85105,1.24488 0.85105,2.0393296 z"
     inkscape:connector-curvature="0" />
  <path
     style="fill:url(#linearGradient1478);fill-opacity:1;stroke-width:0.23221475"
     d="m 12.75295,0.72827939 c -1.064391,0.005 -2.080861,0.0957 -2.9752509,0.254 C 7.1429415,1.4477494 6.6645717,2.4220294 6.6645708,4.2187594 v 2.37295 h 6.2262572 v 0.79098 H 6.6645708 4.3279107 c -1.8095242,0 -3.39399502,1.08763 -3.88959727,3.1566696 -0.57167079,2.3716 -0.59702751,3.85152 0,6.32785 0.44258464,1.84329 1.49953667,3.15667 3.30906007,3.15667 H 5.888103 v -2.84463 c 0,-2.05508 1.7781018,-3.86783 3.8895961,-3.86783 h 6.2190019 c 1.731148,0 3.113128,-1.42536 3.113128,-3.16392 V 4.2187594 c 0,-1.68735 -1.423472,-2.95488 -3.113128,-3.23648001 -1.069578,-0.17805 -2.179358,-0.25894 -3.243751,-0.254 z M 9.3858368,2.6367994 c 0.6431302,0 1.1683312,0.53378 1.1683312,1.19011 -1e-6,0.65399 -0.525201,1.18283 -1.1683312,1.18283 -0.6454345,0 -1.1683297,-0.52884 -1.1683297,-1.18283 0,-0.65632 0.5228952,-1.19011 1.1683297,-1.19011 z"
     id="path1948"
     inkscape:connector-curvature="0" />
  <path
     style="fill:url(#linearGradient1475);fill-opacity:1;stroke-width:0.23221475"
     d="m 19.886297,7.3826894 v 2.7648096 c 0,2.14352 -1.817288,3.94765 -3.889596,3.94765 H 9.7776991 c -1.703488,0 -3.1131274,1.45796 -3.1131283,3.16392 v 5.92874 c 0,1.68735 1.4672696,2.67983 3.1131283,3.16392 1.9708839,0.57952 3.8608579,0.68425 6.2190019,0 1.567484,-0.45384 3.113128,-1.36719 3.113128,-3.16392 v -2.37294 h -6.219001 v -0.79099 h 6.219001 3.11313 c 1.809524,0 2.483826,-1.26218 3.113126,-3.15667 0.650045,-1.95034 0.622387,-3.82592 0,-6.32785 C 24.888891,8.7379694 24.034784,7.3826894 22.222959,7.3826894 Z M 16.388563,22.396819 c 0.645436,0 1.16833,0.52886 1.16833,1.18285 0,0.65632 -0.522895,1.1901 -1.16833,1.1901 -0.643131,0 -1.168331,-0.53378 -1.168331,-1.1901 1e-6,-0.65399 0.525199,-1.18285 1.168331,-1.18285 z"
     id="path1950"
     inkscape:connector-curvature="0" />
  <path
     d="m 106.34577,5.4913394 h 0.3627 v -2.27483 h 0.85923 v -0.27115 h -2.08116 v 0.27115 h 0.85923 v 2.27483 m 1.54353,0 h 0.30988 v -2.07763 l 0.67259,2.07737 h 0.345 l 0.70086,-2.07033 v 2.07059 h 0.33806 v -2.54598 h -0.44722 l -0.76592,2.18116 -0.65321,-2.18116 h -0.50004 v 2.54598"
     style="font-style:normal;font-weight:normal;font-size:15.16445827px;line-height:125%;font-family:'Bitstream Vera Sans';fill:#646464;fill-opacity:1;stroke:none;stroke-width:0.23221475px;stroke-linecap:butt;stroke-linejoin:miter;stroke-opacity:1"
     id="text3004"
     sodipodi:nodetypes="ccccccccccccccccccccccc"
     inkscape:connector-curvature="0" />
  <ellipse
     style="opacity:0.44382025;fill:url(#radialGradient1480);fill-opacity:1;fill-rule:nonzero;stroke:none;stroke-width:3.58014345;stroke-miterlimit:4;stroke-dasharray:none;stroke-opacity:1"
     id="path1894"
     cx="12.961473"
     cy="30.38208"
     rx="8.3437023"
     ry="1.6179124" />
</svg>
