solid OpenSCAD_Model
  facet normal -1 0 0
    outer loop
      vertex 8 0 0
      vertex 8 4 4
      vertex 8 4 0
    endloop
  endfacet
  facet normal -1 -0 0
    outer loop
      vertex 8 4 4
      vertex 8 0 0
      vertex 8 0 4
    endloop
  endfacet
  facet normal -0 0 1
    outer loop
      vertex 8 4 4
      vertex 12 0 4
      vertex 12 4 4
    endloop
  endfacet
  facet normal 0 0 1
    outer loop
      vertex 12 0 4
      vertex 8 4 4
      vertex 8 0 4
    endloop
  endfacet
  facet normal 1 -0 0
    outer loop
      vertex 12 0 4
      vertex 12 4 0
      vertex 12 4 4
    endloop
  endfacet
  facet normal 1 0 0
    outer loop
      vertex 12 4 0
      vertex 12 0 4
      vertex 12 0 0
    endloop
  endfacet
  facet normal 0 1 -0
    outer loop
      vertex 12 4 0
      vertex 8 4 4
      vertex 12 4 4
    endloop
  endfacet
  facet normal 0 1 0
    outer loop
      vertex 8 4 4
      vertex 12 4 0
      vertex 8 4 0
    endloop
  endfacet
  facet normal 0 0 -1
    outer loop
      vertex 8 0 0
      vertex 12 4 0
      vertex 12 0 0
    endloop
  endfacet
  facet normal -0 0 -1
    outer loop
      vertex 12 4 0
      vertex 8 0 0
      vertex 8 4 0
    endloop
  endfacet
  facet normal 0 -1 0
    outer loop
      vertex 8 0 0
      vertex 12 0 4
      vertex 8 0 4
    endloop
  endfacet
  facet normal 0 -1 -0
    outer loop
      vertex 12 0 4
      vertex 8 0 0
      vertex 12 0 0
    endloop
  endfacet
  facet normal -1 0 0
    outer loop
      vertex 16 0 0
      vertex 16 4 4
      vertex 16 4 0
    endloop
  endfacet
  facet normal -1 -0 0
    outer loop
      vertex 16 4 4
      vertex 16 0 0
      vertex 16 0 4
    endloop
  endfacet
  facet normal -0 0 1
    outer loop
      vertex 16 4 4
      vertex 20 0 4
      vertex 20 4 4
    endloop
  endfacet
  facet normal 0 0 1
    outer loop
      vertex 20 0 4
      vertex 16 4 4
      vertex 16 0 4
    endloop
  endfacet
  facet normal 1 -0 0
    outer loop
      vertex 20 0 4
      vertex 20 4 0
      vertex 20 4 4
    endloop
  endfacet
  facet normal 1 0 0
    outer loop
      vertex 20 4 0
      vertex 20 0 4
      vertex 20 0 0
    endloop
  endfacet
  facet normal 0 1 -0
    outer loop
      vertex 20 4 0
      vertex 16 4 4
      vertex 20 4 4
    endloop
  endfacet
  facet normal 0 1 0
    outer loop
      vertex 16 4 4
      vertex 20 4 0
      vertex 16 4 0
    endloop
  endfacet
  facet normal 0 0 -1
    outer loop
      vertex 16 0 0
      vertex 20 4 0
      vertex 20 0 0
    endloop
  endfacet
  facet normal -0 0 -1
    outer loop
      vertex 20 4 0
      vertex 16 0 0
      vertex 16 4 0
    endloop
  endfacet
  facet normal 0 -1 0
    outer loop
      vertex 16 0 0
      vertex 20 0 4
      vertex 16 0 4
    endloop
  endfacet
  facet normal 0 -1 -0
    outer loop
      vertex 20 0 4
      vertex 16 0 0
      vertex 20 0 0
    endloop
  endfacet
  facet normal -1 0 0
    outer loop
      vertex 24 0 0
      vertex 24 4 4
      vertex 24 4 0
    endloop
  endfacet
  facet normal -1 -0 0
    outer loop
      vertex 24 4 4
      vertex 24 0 0
      vertex 24 0 4
    endloop
  endfacet
  facet normal -0 0 1
    outer loop
      vertex 24 4 4
      vertex 28 0 4
      vertex 28 4 4
    endloop
  endfacet
  facet normal 0 0 1
    outer loop
      vertex 28 0 4
      vertex 24 4 4
      vertex 24 0 4
    endloop
  endfacet
  facet normal 1 -0 0
    outer loop
      vertex 28 0 4
      vertex 28 4 0
      vertex 28 4 4
    endloop
  endfacet
  facet normal 1 0 0
    outer loop
      vertex 28 4 0
      vertex 28 0 4
      vertex 28 0 0
    endloop
  endfacet
  facet normal 0 1 -0
    outer loop
      vertex 28 4 0
      vertex 24 4 4
      vertex 28 4 4
    endloop
  endfacet
  facet normal 0 1 0
    outer loop
      vertex 24 4 4
      vertex 28 4 0
      vertex 24 4 0
    endloop
  endfacet
  facet normal 0 0 -1
    outer loop
      vertex 24 0 0
      vertex 28 4 0
      vertex 28 0 0
    endloop
  endfacet
  facet normal -0 0 -1
    outer loop
      vertex 28 4 0
      vertex 24 0 0
      vertex 24 4 0
    endloop
  endfacet
  facet normal 0 -1 0
    outer loop
      vertex 24 0 0
      vertex 28 0 4
      vertex 24 0 4
    endloop
  endfacet
  facet normal 0 -1 -0
    outer loop
      vertex 28 0 4
      vertex 24 0 0
      vertex 28 0 0
    endloop
  endfacet
  facet normal -1 0 0
    outer loop
      vertex 32 0 0
      vertex 32 4 4
      vertex 32 4 0
    endloop
  endfacet
  facet normal -1 -0 0
    outer loop
      vertex 32 4 4
      vertex 32 0 0
      vertex 32 0 4
    endloop
  endfacet
  facet normal -0 0 1
    outer loop
      vertex 32 4 4
      vertex 36 0 4
      vertex 36 4 4
    endloop
  endfacet
  facet normal 0 0 1
    outer loop
      vertex 36 0 4
      vertex 32 4 4
      vertex 32 0 4
    endloop
  endfacet
  facet normal 1 -0 0
    outer loop
      vertex 36 0 4
      vertex 36 4 0
      vertex 36 4 4
    endloop
  endfacet
  facet normal 1 0 0
    outer loop
      vertex 36 4 0
      vertex 36 0 4
      vertex 36 0 0
    endloop
  endfacet
  facet normal 0 1 -0
    outer loop
      vertex 36 4 0
      vertex 32 4 4
      vertex 36 4 4
    endloop
  endfacet
  facet normal 0 1 0
    outer loop
      vertex 32 4 4
      vertex 36 4 0
      vertex 32 4 0
    endloop
  endfacet
  facet normal 0 0 -1
    outer loop
      vertex 32 0 0
      vertex 36 4 0
      vertex 36 0 0
    endloop
  endfacet
  facet normal -0 0 -1
    outer loop
      vertex 36 4 0
      vertex 32 0 0
      vertex 32 4 0
    endloop
  endfacet
  facet normal 0 -1 0
    outer loop
      vertex 32 0 0
      vertex 36 0 4
      vertex 32 0 4
    endloop
  endfacet
  facet normal 0 -1 -0
    outer loop
      vertex 36 0 4
      vertex 32 0 0
      vertex 36 0 0
    endloop
  endfacet
  facet normal -1 0 0
    outer loop
      vertex 5 5 5
      vertex 5 15 15
      vertex 5 15 5
    endloop
  endfacet
  facet normal -1 -0 0
    outer loop
      vertex 5 15 15
      vertex 5 5 5
      vertex 5 5 15
    endloop
  endfacet
  facet normal -0 0 1
    outer loop
      vertex 5 15 15
      vertex 15 5 15
      vertex 15 15 15
    endloop
  endfacet
  facet normal 0 0 1
    outer loop
      vertex 15 5 15
      vertex 5 15 15
      vertex 5 5 15
    endloop
  endfacet
  facet normal 1 -0 0
    outer loop
      vertex 15 5 15
      vertex 15 15 5
      vertex 15 15 15
    endloop
  endfacet
  facet normal 1 0 0
    outer loop
      vertex 15 15 5
      vertex 15 5 15
      vertex 15 5 5
    endloop
  endfacet
  facet normal 0 1 -0
    outer loop
      vertex 15 15 5
      vertex 5 15 15
      vertex 15 15 15
    endloop
  endfacet
  facet normal 0 1 0
    outer loop
      vertex 5 15 15
      vertex 15 15 5
      vertex 5 15 5
    endloop
  endfacet
  facet normal 0 0 -1
    outer loop
      vertex 5 5 5
      vertex 15 15 5
      vertex 15 5 5
    endloop
  endfacet
  facet normal -0 0 -1
    outer loop
      vertex 15 15 5
      vertex 5 5 5
      vertex 5 15 5
    endloop
  endfacet
  facet normal 0 -1 0
    outer loop
      vertex 5 5 5
      vertex 15 5 15
      vertex 5 5 15
    endloop
  endfacet
  facet normal 0 -1 -0
    outer loop
      vertex 15 5 15
      vertex 5 5 5
      vertex 15 5 5
    endloop
  endfacet
endsolid OpenSCAD_Model
