<?xml version="1.0" encoding="UTF-8" standalone="no"?>
<!-- Created with Inkscape (http://www.inkscape.org/) -->

<svg
   width="100"
   height="100"
   version="1.1"
   viewBox="0 0 100 100"
   xml:space="preserve"
   id="svg22192"
   sodipodi:docname="ghetto_url.svg"
   inkscape:version="1.2.1 (9c6d41e410, 2022-07-14)"
   xmlns:inkscape="http://www.inkscape.org/namespaces/inkscape"
   xmlns:sodipodi="http://sodipodi.sourceforge.net/DTD/sodipodi-0.dtd"
   xmlns="http://www.w3.org/2000/svg"
   xmlns:svg="http://www.w3.org/2000/svg"><sodipodi:namedview
     id="namedview22194"
     pagecolor="#ffffff"
     bordercolor="#111111"
     borderopacity="1"
     inkscape:showpageshadow="0"
     inkscape:pageopacity="0"
     inkscape:pagecheckerboard="1"
     inkscape:deskcolor="#d1d1d1"
     showgrid="false"
     inkscape:zoom="1.18"
     inkscape:cx="4.6610169"
     inkscape:cy="125.42373"
     inkscape:current-layer="svg22192" /><animateTransform
     attributeName="transform"
     attributeType="XML"
     dur="10s"
     from="0,0,0"
     repeatCount="indefinite"
     to="359,0,0"
     type="rotate" /><defs
     id="defs22188"><linearGradient
       id="linearGradient19700"
       x1="18.733"
       x2="77.041634"
       y1="84.084"
       y2="12.977389"
       gradientTransform="translate(-.051407 -.22692)"
       gradientUnits="userSpaceOnUse"><stop
         style="stop-color:#40e0d0"
         offset="0"
         id="stop22183" /><stop
         style="stop-color:#ffffe0"
         offset="1"
         id="stop22185" /></linearGradient></defs><circle
     id="path19189"
     cx="50"
     cy="50"
     r="46"
     style="fill-rule:evenodd;fill:url(#linearGradient19700);paint-order:stroke fill markers;stroke-dashoffset:20.001;stroke-linecap:round;stroke-linejoin:round;stroke-width:0.5" /><path
     id="path9133"
     style="font-weight:normal;font-size:26.2867px;font-family:Impact;-inkscape-font-specification:Impact;fill:#ff0000;fill-rule:evenodd;stroke-width:3.00001;stroke-linecap:round;stroke-linejoin:round;stroke-dashoffset:20.0013;paint-order:stroke fill markers"
     d="M 19.105469 39.966797 C 17.369485 39.966797 15.952357 40.315884 14.853516 41.013672 C 13.763909 41.703531 13.103897 42.464287 12.873047 43.296875 C 12.642198 44.129464 12.525391 45.467017 12.525391 47.306641 L 12.525391 53.027344 C 12.525391 54.351555 12.582552 55.345647 12.693359 56.011719 C 12.804167 56.669859 13.080208 57.301661 13.523438 57.904297 C 13.966668 58.506932 14.613367 59.013452 15.462891 59.425781 C 16.321648 59.830181 17.23995 60.033203 18.21875 60.033203 C 19.040572 60.033203 19.751355 59.885185 20.351562 59.591797 C 20.961004 59.290479 21.464268 58.842752 21.861328 58.248047 L 22.402344 59.628906 L 26.072266 59.628906 L 26.072266 49.292969 L 19.244141 49.292969 L 19.244141 52.21875 L 20.421875 52.21875 L 20.421875 54.501953 C 20.421875 55.397977 20.342524 56.0013 20.185547 56.310547 C 20.037804 56.619795 19.750934 56.773438 19.326172 56.773438 C 18.938346 56.773437 18.680056 56.638741 18.550781 56.369141 C 18.421506 56.091611 18.357422 55.520556 18.357422 54.65625 L 18.357422 45.414062 C 18.357422 44.430815 18.421506 43.821866 18.550781 43.583984 C 18.680056 43.346102 18.925032 43.226562 19.285156 43.226562 C 19.700685 43.226563 19.963412 43.365049 20.074219 43.642578 C 20.185027 43.920108 20.242188 44.610702 20.242188 45.712891 L 20.242188 47.460938 L 26.072266 47.460938 L 26.072266 46.628906 C 26.072266 45.050954 25.902203 43.848096 25.560547 43.023438 C 25.218891 42.190849 24.483965 41.473729 23.357422 40.871094 C 22.23088 40.268458 20.813751 39.966797 19.105469 39.966797 z M 28.164062 40.371094 L 28.164062 59.628906 L 33.759766 59.628906 L 33.759766 48.365234 C 33.759766 47.564365 33.819411 47.029366 33.939453 46.759766 C 34.059494 46.490165 34.291156 46.353516 34.632812 46.353516 C 35.002171 46.353516 35.236317 46.484423 35.337891 46.746094 C 35.448698 47.007764 35.505859 47.59972 35.505859 48.519531 L 35.505859 59.628906 L 41.101562 59.628906 L 41.101562 48.746094 C 41.101562 47.263293 41.022212 46.242559 40.865234 45.6875 C 40.717492 45.124512 40.298016 44.62936 39.605469 44.201172 C 38.922156 43.772984 38.090128 43.558594 37.111328 43.558594 C 36.474185 43.558594 35.873818 43.655397 35.310547 43.845703 C 34.756509 44.03601 34.239932 44.320561 33.759766 44.701172 L 33.759766 40.371094 L 28.164062 40.371094 z M 57.818359 41.740234 L 57.818359 44.224609 L 56.613281 44.224609 L 56.613281 46.722656 L 57.818359 46.722656 L 57.818359 54.740234 C 57.818359 56.310258 57.86913 57.308139 57.970703 57.736328 C 58.072277 58.156586 58.330565 58.534152 58.746094 58.867188 C 59.161622 59.192294 59.642697 59.402894 60.1875 59.498047 C 60.732303 59.585271 61.64173 59.628906 62.916016 59.628906 L 65.173828 59.628906 L 65.173828 57.082031 C 64.259666 57.082031 63.73865 57.023238 63.609375 56.904297 C 63.489334 56.785356 63.427734 56.206722 63.427734 55.167969 L 63.427734 46.722656 L 64.9375 46.722656 L 64.9375 44.224609 L 63.427734 44.224609 L 63.427734 41.740234 L 57.818359 41.740234 z M 66.460938 41.740234 L 66.460938 44.224609 L 65.257812 44.224609 L 65.257812 46.722656 L 66.460938 46.722656 L 66.460938 54.740234 C 66.460938 56.310258 66.51366 57.308139 66.615234 57.736328 C 66.716808 58.156586 66.975097 58.534152 67.390625 58.867188 C 67.806153 59.192294 68.285275 59.402894 68.830078 59.498047 C 69.374882 59.585271 70.284308 59.628906 71.558594 59.628906 L 73.816406 59.628906 L 73.816406 57.082031 C 72.902244 57.082031 72.381228 57.023238 72.251953 56.904297 C 72.131911 56.785356 72.072266 56.206722 72.072266 55.167969 L 72.072266 46.722656 L 73.582031 46.722656 L 73.582031 44.224609 L 72.072266 44.224609 L 72.072266 41.740234 L 66.460938 41.740234 z M 49.050781 43.558594 C 47.767261 43.558594 46.632564 43.772984 45.644531 44.201172 C 44.656498 44.621431 43.945716 45.232333 43.511719 46.033203 C 43.077723 46.826144 42.859375 47.913251 42.859375 49.292969 L 42.859375 53.894531 C 42.859375 55.068085 42.956477 55.965491 43.150391 56.583984 C 43.344304 57.19455 43.69082 57.756073 44.189453 58.271484 C 44.697321 58.778967 45.403665 59.181222 46.308594 59.474609 C 47.213521 59.767998 48.257506 59.914062 49.439453 59.914062 C 50.658335 59.914063 51.669302 59.767998 52.472656 59.474609 C 53.285245 59.173292 53.954133 58.723612 54.480469 58.128906 C 55.006804 57.5342 55.340006 56.976466 55.478516 56.453125 C 55.626259 55.929784 55.699219 55.180396 55.699219 54.205078 L 55.699219 53.039062 L 50.394531 53.039062 L 50.394531 55.121094 C 50.394531 55.906106 50.321571 56.437314 50.173828 56.714844 C 50.035318 56.984443 49.752887 57.119141 49.328125 57.119141 C 48.986469 57.119141 48.754808 57.014758 48.634766 56.808594 C 48.514724 56.602429 48.455078 56.143334 48.455078 55.429688 L 48.455078 52.015625 L 55.699219 52.015625 L 55.699219 49.921875 C 55.699219 48.391499 55.4917 47.207706 55.076172 46.367188 C 54.669878 45.518741 53.954657 44.839513 52.929688 44.332031 C 51.913953 43.816619 50.620554 43.558594 49.050781 43.558594 z M 80.880859 43.558594 C 79.384958 43.558594 78.157597 43.809041 77.197266 44.308594 C 76.236934 44.808147 75.57053 45.470263 75.201172 46.294922 C 74.831814 47.11958 74.648438 48.265481 74.648438 49.732422 L 74.648438 53.777344 C 74.648437 55.117414 74.749977 56.122875 74.953125 56.796875 C 75.156271 57.462946 75.491958 58.034001 75.962891 58.509766 C 76.443056 58.977601 77.113898 59.330477 77.972656 59.568359 C 78.831414 59.798312 79.877884 59.914063 81.115234 59.914062 C 82.22331 59.914063 83.203211 59.779365 84.052734 59.509766 C 84.911493 59.232236 85.6134 58.807246 86.158203 58.236328 C 86.703007 57.657481 87.058398 57.039001 87.224609 56.380859 C 87.39082 55.714789 87.474609 54.673271 87.474609 53.253906 L 87.474609 49.386719 C 87.474609 48.268672 87.381944 47.437754 87.197266 46.890625 C 87.02182 46.343496 86.688618 45.810334 86.199219 45.294922 C 85.709819 44.77951 85.012349 44.364051 84.107422 44.046875 C 83.211727 43.721769 82.136677 43.558594 80.880859 43.558594 z M 49.314453 46.353516 C 49.628407 46.353516 49.835926 46.473055 49.9375 46.710938 C 50.039073 46.94882 50.089844 47.47624 50.089844 48.292969 L 50.089844 49.447266 L 48.455078 49.447266 L 48.455078 48.292969 C 48.455078 47.404876 48.501411 46.862298 48.59375 46.664062 C 48.68609 46.457897 48.926627 46.353516 49.314453 46.353516 z M 81.074219 46.353516 C 81.406641 46.353516 81.624989 46.461687 81.726562 46.675781 C 81.828136 46.881946 81.878906 47.388465 81.878906 48.197266 L 81.878906 55.476562 C 81.878906 56.158492 81.821745 56.602429 81.710938 56.808594 C 81.609364 57.014758 81.39297 57.119141 81.060547 57.119141 C 80.737359 57.119141 80.520963 57.00718 80.410156 56.785156 C 80.299348 56.555204 80.244141 56.06763 80.244141 55.322266 L 80.244141 48.197266 C 80.244141 47.388465 80.299348 46.881946 80.410156 46.675781 C 80.520963 46.461687 80.741796 46.353516 81.074219 46.353516 z " /></svg>
