<?xml version="1.0" encoding="UTF-8"?>
<!-- Created with Inkscape (http://www.inkscape.org/) -->
<svg width="100px" height="100px" version="1.1" viewBox="0 0 210 297" xml:space="preserve" xmlns="http://www.w3.org/2000/svg" xmlns:xlink="http://www.w3.org/1999/xlink"><path id="path707" d="m99.509 41.634c5.817 3.9612 11.962 7.4414 18.357 10.361 4.2707 14.132 9.0378 28.092 13.649 42.113-7.5379 4.8216-9.8879 14.617-8.638 23.08 0.43722 10.688-1.4357 21.813 1.6786 32.176 3.9561 8.8459 14.467 12.428 23.476 11.002 20.522-0.31745 41.145 0.71311 61.605-0.70536 10.249-2.4909 15.565-14.219 13.821-24.144-0.43026-10.763 1.2408-21.84-1.3478-32.374-1.6359-4.2448-4.9202-7.8047-8.9198-9.8879 4.626-14.016 9.2963-28.018 13.71-42.101 5.6158-2.6142 11.007-5.6732 16.137-9.1247" style="fill:none;stroke-width:.52915;stroke:#00aad4"/><path id="path28378" d="m127.41 45.698c-0.0767 0.0029-0.15017 0.0128-0.22114 0.0448-1.1318 0.43009-1.0418 3.8213 0.1996 7.6056l14.98 45.661c0.73453 2.2384 1.7018 4.0925 2.6048 5.1489h-2.7952c-5.215 0-9.4148 4.2376-9.4148 9.5039v31.166c0 5.2662 4.1994 9.5069 9.4148 9.5069h62.922c5.215 0 9.4148-4.2407 9.4148-9.5069v-31.166c0-5.2661-4.1994-9.5039-9.4148-9.5039h-4.6903c0.90302-1.0564 1.8702-2.9103 2.6047-5.1489l14.98-45.661c1.2416-3.7842 1.3314-7.1757 0.1996-7.6056-1.1318-0.43009-3.0433 2.2705-4.2849 6.0545l-14.98 45.661c-0.91563 2.7905-1.2041 5.3663-0.83858 6.6997h-18.73c0.90302-1.0564 1.8703-2.9103 2.6048-5.1489l14.98-45.661c1.2415-3.7842 1.3314-7.1757 0.19961-7.6055-1.1318-0.43009-3.0434 2.2704-4.2849 6.0544l-14.98 45.661c-0.91564 2.7909-1.2042 5.3664-0.83853 6.6998h-8.702c0.36562-1.3334 0.0805-3.909-0.83548-6.6998l-14.983-45.661c-1.2416-3.7842-3.15-6.4842-4.2818-6.0544-1.1318 0.43009-1.0451 3.8213 0.19643 7.6055l14.98 45.661c0.73442 2.2385 1.7017 4.0925 2.6047 5.1489h-18.73c0.36562-1.3334 0.0773-3.9089-0.83858-6.6997l-14.98-45.661c-1.1639-3.5477-2.9167-6.1415-4.0637-6.0982z" style="fill-rule:evenodd;fill:#683f1a;stroke-width:.99995"/><g transform="matrix(5.9439 0 0 6.0022 -831.22 -1030.6)" style="fill:#906741;stroke-width:.16741"><rect x="163" y="189.95" width="12.171" height="1.1279" rx="1.4015" ry="0" style="fill-rule:evenodd;fill:#906741;stroke-width:.16741"/><rect x="163" y="192.21" width="12.171" height="1.1279" rx="1.4015" ry="0" style="fill-rule:evenodd;fill:#906741;stroke-width:.16741"/><rect x="163" y="194.48" width="12.171" height="1.1279" rx="1.4015" ry="0" style="fill-rule:evenodd;fill:#906741;stroke-width:.16741"/></g></svg>
