<?xml version="1.0" encoding="UTF-8" standalone="no"?>
<svg
   xmlns:dc="http://purl.org/dc/elements/1.1/"
   xmlns:cc="http://creativecommons.org/ns#"
   xmlns:rdf="http://www.w3.org/1999/02/22-rdf-syntax-ns#"
   xmlns:svg="http://www.w3.org/2000/svg"
   xmlns="http://www.w3.org/2000/svg"
   xmlns:sodipodi="http://sodipodi.sourceforge.net/DTD/sodipodi-0.dtd"
   xmlns:inkscape="http://www.inkscape.org/namespaces/inkscape"
   width="22.799999pt"
   height="11pt"
   viewBox="0 0 243.19999 117.33333"
   version="1.1"
   id="svg8"
   sodipodi:docname="canada.svg"
   inkscape:version="0.92.5 (2060ec1f9f, 2020-04-08)">
  <metadata
     id="metadata14">
    <rdf:RDF>
      <cc:Work
         rdf:about="">
        <dc:format>image/svg+xml</dc:format>
        <dc:type
           rdf:resource="http://purl.org/dc/dcmitype/StillImage" />
        <dc:title>Flag of Canada (Pantone colours)</dc:title>
      </cc:Work>
    </rdf:RDF>
  </metadata>
  <defs
     id="defs12" />
  <sodipodi:namedview
     pagecolor="#ffffff"
     bordercolor="#666666"
     borderopacity="1"
     objecttolerance="10"
     gridtolerance="10"
     guidetolerance="10"
     inkscape:pageopacity="0"
     inkscape:pageshadow="2"
     inkscape:window-width="1920"
     inkscape:window-height="1009"
     id="namedview10"
     showgrid="false"
     inkscape:document-units="pt"
     units="pt"
     inkscape:zoom="19.733333"
     inkscape:cx="23.570792"
     inkscape:cy="-3.32556"
     inkscape:window-x="0"
     inkscape:window-y="0"
     inkscape:window-maximized="1"
     inkscape:current-layer="svg8" />
  <title
     id="title2">Flag of Canada (Pantone colours)</title>
  <path
     d="M 4.2666665,1.0022541e-4 H 62.933333 l 2.42,2.41999997459 H 177.84667 l 2.42,-2.41999997459 h 58.66667 V 117.3334 h -58.66667 l -2.42,-2.42 H 65.353333 l -2.42,2.42 H 4.2666665 Z"
     id="path4"
     inkscape:connector-curvature="0"
     style="fill:#d52b1e;stroke-width:0.02444444" />
  <path
     d="M 62.933333,1.0022541e-4 H 180.26667 V 117.3334 H 62.933333 Z M 123.8,108.289 122.7,87.1934 a 2.3222222,2.3222222 0 0 1 2.71334,-2.3956 l 20.99777,3.6912 -2.83555,-7.8223 a 1.5888889,1.5888889 0 0 1 0.48889,-1.7844 l 23.00222,-18.6267 -5.18222,-2.42 a 1.5888889,1.5888889 0 0 1 -0.83111,-1.9311 L 165.6,41.9223 152.35111,44.7334 a 1.5888889,1.5888889 0 0 1 -1.78444,-0.9289 L 148,37.7667 137.66,48.8645 a 1.5888889,1.5888889 0 0 1 -2.71333,-1.3933 l 4.98667,-25.7156 -7.99334,4.62 a 1.5888889,1.5888889 0 0 1 -2.22444,-0.66 L 121.6,9.7778002 113.48445,25.7156 a 1.5888889,1.5888889 0 0 1 -2.22445,0.66 l -7.99333,-4.62 4.98667,25.7156 A 1.5888889,1.5888889 0 0 1 105.54,48.8645 L 95.199999,37.7667 92.633333,43.8045 a 1.5888889,1.5888889 0 0 1 -1.784445,0.9289 l -13.248889,-2.8111 4.546667,13.9822 a 1.5888889,1.5888889 0 0 1 -0.831111,1.9311 l -5.182222,2.42 23.002222,18.6267 a 1.5888889,1.5888889 0 0 1 0.488889,1.7844 L 96.788888,88.489 117.78667,84.7978 A 2.3222222,2.3222222 0 0 1 120.5,87.1934 l -1.1,21.0956 z"
     id="path6"
     inkscape:connector-curvature="0"
     style="fill:#ffffff;stroke-width:0.02444444" />
</svg>
