<?xml version="1.0" encoding="UTF-8" standalone="no"?>
<!-- Created with Inkscape (http://www.inkscape.org/) -->

<svg
   xmlns:dc="http://purl.org/dc/elements/1.1/"
   xmlns:cc="http://creativecommons.org/ns#"
   xmlns:rdf="http://www.w3.org/1999/02/22-rdf-syntax-ns#"
   xmlns:svg="http://www.w3.org/2000/svg"
   xmlns="http://www.w3.org/2000/svg"
   xmlns:sodipodi="http://sodipodi.sourceforge.net/DTD/sodipodi-0.dtd"
   xmlns:inkscape="http://www.inkscape.org/namespaces/inkscape"
   width="38.5pt"
   height="11pt"
   viewBox="0 0 13.581945 3.8805555"
   version="1.1"
   id="svg831"
   inkscape:version="0.92.5 (2060ec1f9f, 2020-04-08)"
   sodipodi:docname="fr.svg">
  <defs
     id="defs825" />
  <sodipodi:namedview
     id="base"
     pagecolor="#ffffff"
     bordercolor="#666666"
     borderopacity="1.0"
     inkscape:pageopacity="0.0"
     inkscape:pageshadow="2"
     inkscape:zoom="7.9195959"
     inkscape:cx="32.81211"
     inkscape:cy="-5.2728176"
     inkscape:document-units="pt"
     inkscape:current-layer="layer1"
     showgrid="false"
     units="pt"
     inkscape:window-width="1920"
     inkscape:window-height="1009"
     inkscape:window-x="0"
     inkscape:window-y="0"
     inkscape:window-maximized="1" />
  <metadata
     id="metadata828">
    <rdf:RDF>
      <cc:Work
         rdf:about="">
        <dc:format>image/svg+xml</dc:format>
        <dc:type
           rdf:resource="http://purl.org/dc/dcmitype/StillImage" />
        <dc:title></dc:title>
      </cc:Work>
    </rdf:RDF>
  </metadata>
  <g
     inkscape:label="Ebene 1"
     inkscape:groupmode="layer"
     id="layer1"
     transform="translate(0,-293.11946)">
    <rect
       width="5.8208337"
       height="3.8805556"
       id="rect2"
       x="7.7611122"
       y="293.11948"
       style="fill:#ed2939;stroke-width:0.00646759" />
    <rect
       width="3.8805556"
       height="3.8805556"
       id="rect4"
       x="7.7611122"
       y="293.11948"
       style="fill:#ffffff;stroke-width:0.00646759" />
    <rect
       width="1.9402778"
       height="3.8805556"
       id="rect6"
       x="7.7611122"
       y="293.11948"
       style="fill:#002395;stroke-width:0.00646759" />
    <path
       d="m 0,293.11947 h 1.9402778 l 0.080036,0.08 H 5.740797 l 0.080037,-0.08 h 1.940278 v 3.88055 H 5.820834 l -0.080037,-0.08 H 2.0203143 l -0.080036,0.08 H 0 Z"
       id="path4"
       inkscape:connector-curvature="0"
       style="fill:#d52b1e;stroke-width:0.00080845" />
    <path
       d="m 1.9402778,293.11947 h 3.8805557 v 3.88055 H 1.9402778 Z m 2.0130384,3.58143 -0.03638,-0.69769 a 0.07680266,0.07680266 0 0 1 0.089738,-0.0792 l 0.6944574,0.12208 -0.09378,-0.25871 a 0.05254919,0.05254919 0 0 1 0.016169,-0.059 l 0.7607507,-0.61603 -0.171391,-0.08 a 0.05254919,0.05254919 0 0 1 -0.027487,-0.0639 l 0.1503714,-0.46243 -0.4381796,0.093 a 0.05254919,0.05254919 0 0 1 -0.059017,-0.0307 l -0.084887,-0.19969 -0.341974,0.36704 a 0.05254919,0.05254919 0 0 1 -0.089738,-0.0461 l 0.1649238,-0.85049 -0.264363,0.15279 a 0.05254919,0.05254919 0 0 1 -0.073569,-0.0218 l -0.2684053,-0.52711 -0.2684049,0.52711 a 0.05254919,0.05254919 0 0 1 -0.073569,0.0218 l -0.264363,-0.15279 0.1649238,0.85049 a 0.05254919,0.05254919 0 0 1 -0.089738,0.0461 l -0.341974,-0.36704 -0.084887,0.19969 a 0.05254919,0.05254919 0 0 1 -0.059017,0.0307 l -0.4381795,-0.093 0.1503715,0.46243 a 0.05254919,0.05254919 0 0 1 -0.027487,0.0639 l -0.1713912,0.08 0.7607506,0.61603 a 0.05254919,0.05254919 0 0 1 0.016169,0.059 l -0.09378,0.25871 0.6944577,-0.12208 a 0.07680266,0.07680266 0 0 1 0.089738,0.0792 l -0.03638,0.69769 z"
       id="path6"
       inkscape:connector-curvature="0"
       style="fill:#ffffff;stroke-width:0.00080845" />
  </g>
</svg>
