<?xml version="1.0" encoding="UTF-8" standalone="no"?>
<svg
   xmlns:dc="http://purl.org/dc/elements/1.1/"
   xmlns:cc="http://creativecommons.org/ns#"
   xmlns:rdf="http://www.w3.org/1999/02/22-rdf-syntax-ns#"
   xmlns:svg="http://www.w3.org/2000/svg"
   xmlns="http://www.w3.org/2000/svg"
   xmlns:sodipodi="http://sodipodi.sourceforge.net/DTD/sodipodi-0.dtd"
   xmlns:inkscape="http://www.inkscape.org/namespaces/inkscape"
   id="Selfmade_by_NICF-Nettie"
   x="0"
   y="0"
   version="1.1"
   viewBox="0 0 231.25 96"
   xml:space="preserve"
   sodipodi:docname="star-trek-logo.svg"
   width="231.25"
   height="96"
   inkscape:version="0.92.5 (2060ec1f9f, 2020-04-08)"><metadata
     id="metadata21"><rdf:RDF><cc:Work
         rdf:about=""><dc:format>image/svg+xml</dc:format><dc:type
           rdf:resource="http://purl.org/dc/dcmitype/StillImage" /><dc:title></dc:title></cc:Work></rdf:RDF></metadata><defs
     id="defs19" /><sodipodi:namedview
     pagecolor="#ffffff"
     bordercolor="#666666"
     borderopacity="1"
     objecttolerance="10"
     gridtolerance="10"
     guidetolerance="10"
     inkscape:pageopacity="0"
     inkscape:pageshadow="2"
     inkscape:window-width="1920"
     inkscape:window-height="1011"
     id="namedview17"
     showgrid="false"
     inkscape:zoom="0.78685567"
     inkscape:cx="438.90163"
     inkscape:cy="145.46099"
     inkscape:window-x="0"
     inkscape:window-y="0"
     inkscape:window-maximized="1"
     inkscape:current-layer="Selfmade_by_NICF-Nettie" /><style
     id="style2">.st0{fill:#3e7dc0}</style><switch
     id="switch14"
     transform="matrix(0.36795707,0,0,0.36795707,-7.0647757,-12.326565)"><g
       id="g12"><g
         id="TNG"><path
           d="M 64,258.6 H 33.7 l -3.7,8.7 h 10.6 l -11.3,26.9 h 12 l 11.3,-26.9 h 7.8 z m 22,0 -5.7,13.5 h -6.4 l 5.6,-13.5 H 67.6 l -15,35.6 h 12 l 5.3,-12.7 h 6.5 L 71,294.2 h 12 l 14.9,-35.6 z m 552.2,0.1 H 612 l -14.9,35.6 h 12 l 11.3,-26.9 h 6 c 0.7,0 0.8,1.4 0.6,2.1 l -10.4,24.8 h 12 L 641,264.7 c 0.8,-2.1 0.3,-6 -2.8,-6 z m -166.4,19.7 c 1.2,-0.4 3.5,-1.9 4.2,-3.6 l 4.2,-10.1 c 0.8,-2 0.4,-6 -2.7,-6 h -26.2 l -15,35.6 h 12 l 5.9,-14 h 5.7 c 0.9,0 1.2,1.2 1,1.8 l -5.1,12.2 h 12 l 5.3,-12.6 c 0.5,-1.2 -0.2,-2.7 -1.3,-3.3 z m -5.6,-8.9 -1.4,3.2 h -7.5 l 2.2,-5.3 h 6 c 0.9,0 1,1.4 0.7,2.1 z m -44.7,10.8 h 15 l 3.2,-7.6 h -15 l 2.3,-5.3 h 15 l 3.6,-8.7 h -26.9 l -15,35.6 h 27 l 3.6,-8.7 h -15 z m 91.7,-21.7 h -24.7 l -3.6,8.7 H 502 c 0.9,0 1.8,1.2 1.7,2 l -2.1,16.2 H 491.2 L 502,271.2 h -12.6 l -17.2,23 h 40.4 l 4,-31.7 c 0.1,-1.7 -1.3,-3.9 -3.4,-3.9 z m 84,0.1 h -20.1 c -1.7,0 -3.5,1.6 -4.2,3.2 l -11.7,27.8 c -0.8,1.8 0.1,4.7 3.7,4.7 h 22.6 c 2.4,0 4.3,-2.8 5.3,-5 l 9.5,-22.6 c 1.2,-3 -0.3,-8.1 -5.1,-8.1 z m -8.1,10.7 -6.1,14.6 c -0.3,0.8 -1.2,1.6 -2,1.6 h -5.1 c -0.4,0 -0.8,-0.5 -0.7,-0.9 l 6.8,-16.3 c 0.3,-0.6 1.1,-1.1 1.8,-1.1 h 4.7 c 0.8,0.1 0.9,1.5 0.6,2.1 z M 406.9,258.7 h -26.2 l -14.9,35.6 h 12 l 11.3,-26.9 h 6 c 0.7,0 0.8,1.4 0.6,2.1 l -10.4,24.8 h 12 l 12.4,-29.6 c 0.7,-2.1 0.3,-6 -2.8,-6 z m 146.1,0 h -30.3 l -3.6,8.6 h 10.6 l -11.3,27 h 11.9 l 11.3,-27 h 7.8 z M 89.6,294.3 h 26.6 l 3.6,-8.7 H 105 l 2.2,-5.3 H 122 l 3.1,-7.6 h -14.7 l 2.2,-5.3 h 14.7 l 3.6,-8.7 h -26.5 z m 468.6,-35.6 -15,35.6 h 12 l 14.9,-35.6 z m -364.9,26.8 2.2,-5.3 h 15 l 3.2,-7.6 h -15 l 2.2,-5.3 h 15 l 3.7,-8.7 h -27 l -14.9,35.6 h 26.9 l 3.7,-8.7 z m -12.8,-26.9 h -26.2 l -14.9,35.6 h 12 l 11.3,-26.9 h 6 c 0.7,0 0.8,1.4 0.6,2.1 l -10.4,24.8 h 12 l 12.4,-29.6 c 0.7,-2 0.2,-6 -2.8,-6 z m 67.1,0 c -3.3,0 -8.8,3.8 -9.4,5.9 l -1.9,-5.9 H 224 l 4.9,14.1 c -6.7,6.7 -11.6,12.9 -15.5,12.9 h -1.6 l -3.6,8.7 h 11.1 c 3.9,0 10.3,-8.1 13.2,-11.3 l 3.9,11.2 h 12 L 241.7,275 c 3.1,-3.3 5.3,-7.7 9.2,-7.7 h 2.8 l 3.7,-8.7 z m 8.7,8.7 h 10.6 l -11.3,26.9 h 12 l 11.3,-26.9 h 7.7 l 3.7,-8.7 H 260 Z m 62.3,5.4 -3.2,7.6 h 4.1 l -1.6,3.7 c -0.3,0.8 -1.2,1.6 -2,1.6 h -5.1 c -0.4,0 -0.8,-0.5 -0.7,-0.9 l 6.8,-16.3 c 0.3,-0.6 1.1,-1.1 1.8,-1.1 h 17.9 l 2,-4.8 c 0.6,-1.5 -0.1,-3.9 -2.8,-3.9 h -23.9 c -1.7,0 -3.5,1.6 -4.2,3.2 L 296,289.6 c -0.8,1.8 0.1,4.7 3.7,4.7 h 22.5 c 2.4,0 4.3,-2.8 5.3,-5 l 7,-16.6 z m 46.7,7.6 3.2,-7.6 h -15 l 2.2,-5.3 h 15 l 3.6,-8.7 h -26.9 l -15,35.6 h 27 l 3.6,-8.7 h -15 l 2.3,-5.3 z"
           class="st0"
           id="path4"
           inkscape:connector-curvature="0"
           style="fill:#3e7dc0" /></g><g
         id="Star_Trek"><path
           d="m 228.4,57 c 3,0 4.6,2.4 3.1,7.2 l -16.6,50.3 h -19.7 l 29.9,-41.3 h -26.4 l -55.3,65.9 h 95.7 l 24.2,-87.8 c 4.5,-12.2 -1.6,-17.4 -6.4,-17.4 h -51.2 l -9.6,23 h 32.3 z M 112,139.3 h 27.3 l 26.6,-66 h -27.3 z m 204.2,-66 h -46.3 l -26.5,65.9 h 27.3 L 288.5,95 h 11.4 c 2.8,0 5.4,3.5 4.4,8.4 l -14.1,35.7 h 27.3 L 330,108 c 1.7,-5.2 0,-9.1 -2.1,-12.7 3.3,-1.4 7.6,-1.5 9.9,-6.5 l 5.2,-13 h 0.1 l 10.4,-24.5 c 6.2,-12.2 0.9,-17.4 -4,-17.4 h -63.4 l -9.6,23 h 41.2 c 2.9,0 4.2,2.4 2.1,7.2 z M 191,57 200.5,34 H 136 l -9.6,23 z m 137.2,82.2 h 64.6 l 9.6,-23 h -64.6 z"
           class="st0"
           id="path7"
           inkscape:connector-curvature="0"
           style="fill:#3e7dc0" /><path
           d="m 91.1,137.7 c 8.2,-2.7 14.9,-6.1 21.9,-13 6.6,-6.6 10.7,-16.9 10.4,-26.7 -0.5,-12.8 -7.5,-22.2 -18.9,-25.1 -10.7,-2.7 -15.7,-3.2 -15.9,-8.7 -0.2,-4.3 3.3,-7.4 9.6,-7.4 h 23.1 l 10,-23.3 H 90.7 c -20,0 -32.4,14.5 -31.7,33.6 0.5,12.5 6.2,18.8 19.4,23.3 7.7,2.6 12.3,2.9 12.5,9.3 0.2,4.5 -2.4,9.3 -7.2,12.8 -4.3,3.1 -10.6,3.7 -19.2,3.7 H 29.1 l -9.9,23.3 H 66 c 13.1,0.1 21.4,-0.7 25.1,-1.8 z m 472.6,39.6 h 9.2 c 4.1,0 6.9,4.8 8.9,8.4 l 17,35.7 h 31 L 601.1,168 c -3.3,-5.6 -8.5,-12.5 -15,-12.5 H 545 l -26.6,65.9 h 27.3 z m -35.8,0.4 9,-22.2 h -61 l -26.7,65.9 h 61 l 3.4,-8.2 6,-14.8 h -33.8 l 8.3,-20.7 z m -214.1,43.7 h 27.4 l 26.5,-65.9 h -27.3 z m 311.6,-82.2 22.1,-23 h -40.8 c -8.2,0 -11.9,4.2 -17.9,6.6 l 1.4,-6.6 h -28.7 l -9.6,23 z m -186.1,0 c 2.9,0 4.2,2.4 2.1,7.2 l -3.6,9.1 H 391.5 L 365,221.4 h 27.3 l 17.8,-44.2 h 11.4 c 2.8,0 5.4,3.5 4.4,8.4 l -14.1,35.7 H 439 l 12.5,-31.1 c 1.7,-5.2 0,-9.1 -2.1,-12.7 3.3,-1.4 7.6,-1.5 9.9,-6.5 l 5.2,-13 h 0.1 l 10.5,-24.5 c 6.2,-12.2 0.9,-17.4 -4,-17.4 h -63.3 l -9.6,23 h 41.1 z m 113.4,-23 h -60.8 l -9.3,23 h 60.8 z"
           class="st0"
           id="path9"
           inkscape:connector-curvature="0"
           style="fill:#3e7dc0" /></g></g></switch></svg>